<svg width="707" height="571" viewBox="0 0 707 571" fill="none" xmlns="http://www.w3.org/2000/svg">
<path d="M288.458 374.052C288.725 373.932 289.022 374.146 288.993 374.437L288.834 376.024C288.805 376.316 288.471 376.466 288.233 376.295L286.939 375.364C286.701 375.193 286.737 374.829 287.004 374.708L288.458 374.052Z" fill="#161616"/>
<path d="M271.368 312.229C271.583 312.228 271.773 312.365 271.841 312.569L272.175 313.581C272.242 313.785 272.171 314.009 271.998 314.136L271.139 314.767C270.966 314.894 270.731 314.895 270.556 314.769L269.691 314.147C269.517 314.022 269.443 313.799 269.508 313.594L269.833 312.579C269.898 312.375 270.088 312.235 270.302 312.234L271.368 312.229Z" fill="#161616"/>
<path d="M749.473 9.59015C369.004 152.455 -163.652 456.855 749.473 531.538V9.59015Z" fill="white"/>
<path d="M854.92 46.2513C474.451 189.116 -58.205 420.95 854.92 495.633V46.2513Z" fill="#31188C"/>
<path d="M955.455 74.2195C574.986 199.181 42.329 401.963 955.455 467.287V74.2195Z" fill="white"/>
<path d="M875.33 137.715C631.761 228.553 290.765 375.959 875.33 423.445V137.715Z" fill="#31188C"/>
<circle r="1.5118" transform="matrix(-1 0 0 1 388.532 371.288)" fill="white"/>
<circle r="1.5118" transform="matrix(-1 0 0 1 245.667 31.8892)" fill="white"/>
<circle r="1.5118" transform="matrix(-1 0 0 1 57.4479 431.004)" fill="white"/>
<circle r="1.5118" transform="matrix(-1 0 0 1 528.373 516.42)" fill="white"/>
<circle r="1.5118" transform="matrix(-1 0 0 1 399.114 102.944)" fill="white"/>
<circle r="1.5118" transform="matrix(-1 0 0 1 94.4158 229.54)" fill="white"/>
<circle r="1.5118" transform="matrix(-1 0 0 1 334.107 186.092)" fill="white"/>
<circle cx="343.555" cy="399.634" r="1.13385" fill="#161616"/>
<circle cx="497.003" cy="452.547" r="1.13385" fill="#161616"/>
<circle cx="539.333" cy="59.4795" r="13.2282" fill="white"/>
<circle cx="421.21" cy="255.054" r="19.2754" transform="rotate(18.3001 421.21 255.054)" fill="white"/>
<path d="M427.262 236.753C417.155 233.411 406.351 238.595 402.909 249.001C401.179 254.234 401.233 258.046 403.421 263.103C404.251 260.592 433.605 240.443 433.605 240.443C433.605 240.443 432.645 238.533 427.262 236.753Z" fill="#31188C"/>
<circle cx="345.067" cy="445.744" r="2.64564" fill="#161616"/>
<circle cx="492.468" cy="333.871" r="1.88975" fill="#161616"/>
<circle cx="581.663" cy="137.337" r="2.64564" fill="#161616"/>
<rect x="508.719" y="216.522" width="1.14346" height="1.14346" rx="0.265094" transform="rotate(-24.4476 508.719 216.522)" fill="white"/>
<rect x="282.706" y="444.803" width="2.29376" height="2.29376" rx="0.531777" transform="rotate(-24.4476 282.706 444.803)" fill="white"/>
<rect x="688.623" y="568.77" width="2.29376" height="2.29376" rx="0.531777" transform="rotate(-24.4476 688.623 568.77)" fill="white"/>
<rect y="75.1688" width="2.29376" height="2.29376" rx="0.531777" transform="rotate(-24.4476 0 75.1688)" fill="white"/>
<rect x="365.677" y="250.746" width="1.98997" height="1.98997" rx="0.481997" transform="rotate(35.3063 365.677 250.746)" fill="#161616"/>
<rect x="422.183" y="426.415" width="2.36858" height="2.36858" rx="0.619105" transform="rotate(30.4542 422.183 426.415)" fill="#161616"/>
<rect x="667.458" y="509.841" width="2.36858" height="2.36858" rx="0.619105" transform="rotate(-24.4476 667.458 509.841)" fill="#161616"/>
<rect x="690.135" y="182.537" width="2.36858" height="2.36858" rx="0.619105" transform="rotate(-24.4476 690.135 182.537)" fill="#161616"/>
<path d="M671.322 238.068C671.701 237.897 672.123 238.2 672.082 238.615L671.989 239.542C671.947 239.956 671.473 240.17 671.135 239.927L670.379 239.383C670.041 239.14 670.093 238.622 670.472 238.451L671.322 238.068Z" fill="white"/>
<path d="M401.277 317.172C401.407 317.415 401.365 317.713 401.175 317.912L400.228 318.898C400.038 319.096 399.741 319.15 399.494 319.03L398.263 318.434C398.016 318.314 397.873 318.049 397.911 317.776L398.097 316.422C398.134 316.149 398.343 315.932 398.614 315.883L399.959 315.642C400.23 315.593 400.501 315.725 400.631 315.967L401.277 317.172Z" fill="white"/>
<path d="M633.813 34.5404C634.089 34.5391 634.333 34.7151 634.42 34.9763L634.848 36.2742C634.935 36.5354 634.843 36.8226 634.621 36.9854L633.519 37.7942C633.297 37.957 632.996 37.9585 632.773 37.7979L631.663 36.9999C631.44 36.8392 631.345 36.553 631.429 36.291L631.845 34.9889C631.928 34.7268 632.171 34.5485 632.447 34.5471L633.813 34.5404Z" fill="white"/>
<path d="M580.058 309.643C580.147 309.746 580.16 309.895 580.089 310.012L579.737 310.592C579.666 310.708 579.529 310.766 579.396 310.735L578.736 310.58C578.603 310.548 578.505 310.435 578.494 310.299L578.438 309.623C578.427 309.487 578.504 309.36 578.63 309.307L579.255 309.045C579.381 308.992 579.527 309.026 579.616 309.129L580.058 309.643Z" fill="white"/>
<path d="M493.972 117.689C494.247 117.688 494.492 117.864 494.578 118.125L495.007 119.423C495.093 119.684 495.002 119.971 494.78 120.134L493.678 120.943C493.456 121.106 493.155 121.107 492.931 120.947L491.822 120.149C491.598 119.988 491.504 119.702 491.587 119.44L492.003 118.138C492.087 117.876 492.33 117.697 492.605 117.696L493.972 117.689Z" fill="white"/>
<path d="M616.098 370.784C616.205 370.951 616.193 371.168 616.067 371.322L615.442 372.087C615.316 372.241 615.106 372.297 614.92 372.224L614 371.866C613.814 371.794 613.697 371.611 613.708 371.413L613.764 370.427C613.775 370.228 613.913 370.059 614.105 370.009L615.06 369.757C615.253 369.707 615.456 369.786 615.563 369.953L616.098 370.784Z" fill="white"/>
<path d="M628.522 447.261C628.797 447.26 629.042 447.436 629.128 447.697L629.557 448.995C629.643 449.256 629.551 449.543 629.33 449.706L628.228 450.515C628.006 450.678 627.705 450.679 627.481 450.518L626.371 449.72C626.148 449.56 626.053 449.274 626.137 449.012L626.553 447.709C626.637 447.447 626.88 447.269 627.155 447.268L628.522 447.261Z" fill="white"/>
<path d="M450.886 524.363C451.161 524.361 451.406 524.537 451.492 524.799L451.921 526.096C452.007 526.358 451.915 526.645 451.694 526.808L450.592 527.616C450.37 527.779 450.069 527.781 449.845 527.62L448.735 526.822C448.512 526.661 448.417 526.375 448.501 526.113L448.917 524.811C449.001 524.549 449.244 524.371 449.519 524.369L450.886 524.363Z" fill="white"/>
</svg>
