<svg id="visual" viewBox="0 0 900 600" width="900" height="600" xmlns="http://www.w3.org/2000/svg" xmlns:xlink="http://www.w3.org/1999/xlink" version="1.1"><rect x="0" y="0" width="900" height="600" fill="#f0f0f0"></rect><path d="M0 42L16.7 43.8C33.3 45.7 66.7 49.3 100 51.8C133.3 54.3 166.7 55.7 200 53.3C233.3 51 266.7 45 300 44.8C333.3 44.7 366.7 50.3 400 56.7C433.3 63 466.7 70 500 71.2C533.3 72.3 566.7 67.7 600 66.7C633.3 65.7 666.7 68.3 700 67.2C733.3 66 766.7 61 800 62.3C833.3 63.7 866.7 71.3 883.3 75.2L900 79L900 0L883.3 0C866.7 0 833.3 0 800 0C766.7 0 733.3 0 700 0C666.7 0 633.3 0 600 0C566.7 0 533.3 0 500 0C466.7 0 433.3 0 400 0C366.7 0 333.3 0 300 0C266.7 0 233.3 0 200 0C166.7 0 133.3 0 100 0C66.7 0 33.3 0 16.7 0L0 0Z" fill="#31188C" stroke-linecap="round" stroke-linejoin="miter"></path></svg>