<svg id="visual" viewBox="0 0 900 600" width="900" height="600" xmlns="http://www.w3.org/2000/svg" xmlns:xlink="http://www.w3.org/1999/xlink" version="1.1"><rect x="0" y="0" width="900" height="600" fill="#31188C"></rect><path d="M0 221L16.7 227.7C33.3 234.3 66.7 247.7 100 255.7C133.3 263.7 166.7 266.3 200 249.3C233.3 232.3 266.7 195.7 300 184.2C333.3 172.7 366.7 186.3 400 206.3C433.3 226.3 466.7 252.7 500 250.2C533.3 247.7 566.7 216.3 600 195.5C633.3 174.7 666.7 164.3 700 156.2C733.3 148 766.7 142 800 156.8C833.3 171.7 866.7 207.3 883.3 225.2L900 243L900 0L883.3 0C866.7 0 833.3 0 800 0C766.7 0 733.3 0 700 0C666.7 0 633.3 0 600 0C566.7 0 533.3 0 500 0C466.7 0 433.3 0 400 0C366.7 0 333.3 0 300 0C266.7 0 233.3 0 200 0C166.7 0 133.3 0 100 0C66.7 0 33.3 0 16.7 0L0 0Z" fill="#f0f0f0" stroke-linecap="round" stroke-linejoin="miter"></path></svg>