<svg id="visual" viewBox="0 0 900 600" width="900" height="600" xmlns="http://www.w3.org/2000/svg" xmlns:xlink="http://www.w3.org/1999/xlink" version="1.1"><rect x="0" y="0" width="900" height="600" fill="#f0f0f0"></rect><path d="M0 151L21.5 157.3C43 163.7 86 176.3 128.8 176.7C171.7 177 214.3 165 257.2 167C300 169 343 185 385.8 192.8C428.7 200.7 471.3 200.3 514.2 200C557 199.7 600 199.3 642.8 188C685.7 176.7 728.3 154.3 771.2 154C814 153.7 857 175.3 878.5 186.2L900 197L900 0L878.5 0C857 0 814 0 771.2 0C728.3 0 685.7 0 642.8 0C600 0 557 0 514.2 0C471.3 0 428.7 0 385.8 0C343 0 300 0 257.2 0C214.3 0 171.7 0 128.8 0C86 0 43 0 21.5 0L0 0Z" fill="#31188c"></path><path d="M0 129L21.5 132.5C43 136 86 143 128.8 140.8C171.7 138.7 214.3 127.3 257.2 130.2C300 133 343 150 385.8 150.2C428.7 150.3 471.3 133.7 514.2 134.7C557 135.7 600 154.3 642.8 157.3C685.7 160.3 728.3 147.7 771.2 148.2C814 148.7 857 162.3 878.5 169.2L900 176L900 0L878.5 0C857 0 814 0 771.2 0C728.3 0 685.7 0 642.8 0C600 0 557 0 514.2 0C471.3 0 428.7 0 385.8 0C343 0 300 0 257.2 0C214.3 0 171.7 0 128.8 0C86 0 43 0 21.5 0L0 0Z" fill="#341c8e"></path><path d="M0 137L21.5 139.8C43 142.7 86 148.3 128.8 149.5C171.7 150.7 214.3 147.3 257.2 142.2C300 137 343 130 385.8 129.5C428.7 129 471.3 135 514.2 136C557 137 600 133 642.8 131.3C685.7 129.7 728.3 130.3 771.2 128.3C814 126.3 857 121.7 878.5 119.3L900 117L900 0L878.5 0C857 0 814 0 771.2 0C728.3 0 685.7 0 642.8 0C600 0 557 0 514.2 0C471.3 0 428.7 0 385.8 0C343 0 300 0 257.2 0C214.3 0 171.7 0 128.8 0C86 0 43 0 21.5 0L0 0Z" fill="#371f91"></path><path d="M0 128L21.5 122.8C43 117.7 86 107.3 128.8 104.5C171.7 101.7 214.3 106.3 257.2 111.3C300 116.3 343 121.7 385.8 116.5C428.7 111.3 471.3 95.7 514.2 91.8C557 88 600 96 642.8 103.2C685.7 110.3 728.3 116.7 771.2 112.7C814 108.7 857 94.3 878.5 87.2L900 80L900 0L878.5 0C857 0 814 0 771.2 0C728.3 0 685.7 0 642.8 0C600 0 557 0 514.2 0C471.3 0 428.7 0 385.8 0C343 0 300 0 257.2 0C214.3 0 171.7 0 128.8 0C86 0 43 0 21.5 0L0 0Z" fill="#3a2293"></path><path d="M0 106L21.5 106.3C43 106.7 86 107.3 128.8 107.2C171.7 107 214.3 106 257.2 102.5C300 99 343 93 385.8 89.3C428.7 85.7 471.3 84.3 514.2 82.2C557 80 600 77 642.8 80.8C685.7 84.7 728.3 95.3 771.2 99.5C814 103.7 857 101.3 878.5 100.2L900 99L900 0L878.5 0C857 0 814 0 771.2 0C728.3 0 685.7 0 642.8 0C600 0 557 0 514.2 0C471.3 0 428.7 0 385.8 0C343 0 300 0 257.2 0C214.3 0 171.7 0 128.8 0C86 0 43 0 21.5 0L0 0Z" fill="#3e2695"></path><path d="M0 68L21.5 70.2C43 72.3 86 76.7 128.8 79.3C171.7 82 214.3 83 257.2 81.7C300 80.3 343 76.7 385.8 76.3C428.7 76 471.3 79 514.2 76.8C557 74.7 600 67.3 642.8 64C685.7 60.7 728.3 61.3 771.2 62.7C814 64 857 66 878.5 67L900 68L900 0L878.5 0C857 0 814 0 771.2 0C728.3 0 685.7 0 642.8 0C600 0 557 0 514.2 0C471.3 0 428.7 0 385.8 0C343 0 300 0 257.2 0C214.3 0 171.7 0 128.8 0C86 0 43 0 21.5 0L0 0Z" fill="#412997"></path><path d="M0 45L21.5 46.8C43 48.7 86 52.3 128.8 54C171.7 55.7 214.3 55.3 257.2 56C300 56.7 343 58.3 385.8 56C428.7 53.7 471.3 47.3 514.2 45.8C557 44.3 600 47.7 642.8 46.8C685.7 46 728.3 41 771.2 40.8C814 40.7 857 45.3 878.5 47.7L900 50L900 0L878.5 0C857 0 814 0 771.2 0C728.3 0 685.7 0 642.8 0C600 0 557 0 514.2 0C471.3 0 428.7 0 385.8 0C343 0 300 0 257.2 0C214.3 0 171.7 0 128.8 0C86 0 43 0 21.5 0L0 0Z" fill="#442c9a"></path><path d="M0 26L21.5 28.2C43 30.3 86 34.7 128.8 36.3C171.7 38 214.3 37 257.2 33C300 29 343 22 385.8 22.2C428.7 22.3 471.3 29.7 514.2 31.8C557 34 600 31 642.8 27.3C685.7 23.7 728.3 19.3 771.2 18.8C814 18.3 857 21.7 878.5 23.3L900 25L900 0L878.5 0C857 0 814 0 771.2 0C728.3 0 685.7 0 642.8 0C600 0 557 0 514.2 0C471.3 0 428.7 0 385.8 0C343 0 300 0 257.2 0C214.3 0 171.7 0 128.8 0C86 0 43 0 21.5 0L0 0Z" fill="#472f9c"></path></svg>