<svg id="visual" viewBox="0 0 900 600" width="900" height="600" xmlns="http://www.w3.org/2000/svg" xmlns:xlink="http://www.w3.org/1999/xlink" version="1.1"><path d="M0 67L13.7 68C27.3 69 54.7 71 82 76C109.3 81 136.7 89 163.8 86C191 83 218 69 245.2 64C272.3 59 299.7 63 327 67C354.3 71 381.7 75 409 76C436.3 77 463.7 75 491 72C518.3 69 545.7 65 573 60C600.3 55 627.7 49 654.8 47C682 45 709 47 736.2 53C763.3 59 790.7 69 818 74C845.3 79 872.7 79 886.3 79L900 79L900 0L886.3 0C872.7 0 845.3 0 818 0C790.7 0 763.3 0 736.2 0C709 0 682 0 654.8 0C627.7 0 600.3 0 573 0C545.7 0 518.3 0 491 0C463.7 0 436.3 0 409 0C381.7 0 354.3 0 327 0C299.7 0 272.3 0 245.2 0C218 0 191 0 163.8 0C136.7 0 109.3 0 82 0C54.7 0 27.3 0 13.7 0L0 0Z" fill="#1d1768"></path><path d="M0 175L13.7 172C27.3 169 54.7 163 82 167C109.3 171 136.7 185 163.8 185C191 185 218 171 245.2 170C272.3 169 299.7 181 327 181C354.3 181 381.7 169 409 158C436.3 147 463.7 137 491 130C518.3 123 545.7 119 573 122C600.3 125 627.7 135 654.8 141C682 147 709 149 736.2 153C763.3 157 790.7 163 818 163C845.3 163 872.7 157 886.3 154L900 151L900 77L886.3 77C872.7 77 845.3 77 818 72C790.7 67 763.3 57 736.2 51C709 45 682 43 654.8 45C627.7 47 600.3 53 573 58C545.7 63 518.3 67 491 70C463.7 73 436.3 75 409 74C381.7 73 354.3 69 327 65C299.7 61 272.3 57 245.2 62C218 67 191 81 163.8 84C136.7 87 109.3 79 82 74C54.7 69 27.3 67 13.7 66L0 65Z" fill="#26187a"></path><path d="M0 319L13.7 304C27.3 289 54.7 259 82 253C109.3 247 136.7 265 163.8 273C191 281 218 279 245.2 272C272.3 265 299.7 253 327 250C354.3 247 381.7 253 409 243C436.3 233 463.7 207 491 200C518.3 193 545.7 205 573 209C600.3 213 627.7 209 654.8 212C682 215 709 225 736.2 233C763.3 241 790.7 247 818 253C845.3 259 872.7 265 886.3 268L900 271L900 149L886.3 152C872.7 155 845.3 161 818 161C790.7 161 763.3 155 736.2 151C709 147 682 145 654.8 139C627.7 133 600.3 123 573 120C545.7 117 518.3 121 491 128C463.7 135 436.3 145 409 156C381.7 167 354.3 179 327 179C299.7 179 272.3 167 245.2 168C218 169 191 183 163.8 183C136.7 183 109.3 169 82 165C54.7 161 27.3 167 13.7 170L0 173Z" fill="#31188c"></path><path d="M0 415L13.7 416C27.3 417 54.7 419 82 421C109.3 423 136.7 425 163.8 431C191 437 218 447 245.2 441C272.3 435 299.7 413 327 412C354.3 411 381.7 431 409 416C436.3 401 463.7 351 491 351C518.3 351 545.7 401 573 413C600.3 425 627.7 399 654.8 394C682 389 709 405 736.2 406C763.3 407 790.7 393 818 384C845.3 375 872.7 371 886.3 369L900 367L900 269L886.3 266C872.7 263 845.3 257 818 251C790.7 245 763.3 239 736.2 231C709 223 682 213 654.8 210C627.7 207 600.3 211 573 207C545.7 203 518.3 191 491 198C463.7 205 436.3 231 409 241C381.7 251 354.3 245 327 248C299.7 251 272.3 263 245.2 270C218 277 191 279 163.8 271C136.7 263 109.3 245 82 251C54.7 257 27.3 287 13.7 302L0 317Z" fill="#472f9c"></path><path d="M0 601L13.7 601C27.3 601 54.7 601 82 601C109.3 601 136.7 601 163.8 601C191 601 218 601 245.2 601C272.3 601 299.7 601 327 601C354.3 601 381.7 601 409 601C436.3 601 463.7 601 491 601C518.3 601 545.7 601 573 601C600.3 601 627.7 601 654.8 601C682 601 709 601 736.2 601C763.3 601 790.7 601 818 601C845.3 601 872.7 601 886.3 601L900 601L900 365L886.3 367C872.7 369 845.3 373 818 382C790.7 391 763.3 405 736.2 404C709 403 682 387 654.8 392C627.7 397 600.3 423 573 411C545.7 399 518.3 349 491 349C463.7 349 436.3 399 409 414C381.7 429 354.3 409 327 410C299.7 411 272.3 433 245.2 439C218 445 191 435 163.8 429C136.7 423 109.3 421 82 419C54.7 417 27.3 415 13.7 414L0 413Z" fill="#5c44ad"></path></svg>