<svg id="visual" viewBox="0 0 900 600" width="900" height="600" xmlns="http://www.w3.org/2000/svg" xmlns:xlink="http://www.w3.org/1999/xlink" version="1.1"><rect x="0" y="0" width="900" height="600" fill="#f0f0f0"></rect><path d="M0 238L21.5 229.3C43 220.7 86 203.3 128.8 204.7C171.7 206 214.3 226 257.2 235.7C300 245.3 343 244.7 385.8 239.5C428.7 234.3 471.3 224.7 514.2 211.7C557 198.7 600 182.3 642.8 184.5C685.7 186.7 728.3 207.3 771.2 212.8C814 218.3 857 208.7 878.5 203.8L900 199L900 0L878.5 0C857 0 814 0 771.2 0C728.3 0 685.7 0 642.8 0C600 0 557 0 514.2 0C471.3 0 428.7 0 385.8 0C343 0 300 0 257.2 0C214.3 0 171.7 0 128.8 0C86 0 43 0 21.5 0L0 0Z" fill="#3f2a89"></path><path d="M0 205L21.5 201.3C43 197.7 86 190.3 128.8 176C171.7 161.7 214.3 140.3 257.2 133.8C300 127.3 343 135.7 385.8 140.3C428.7 145 471.3 146 514.2 144C557 142 600 137 642.8 138.8C685.7 140.7 728.3 149.3 771.2 153.5C814 157.7 857 157.3 878.5 157.2L900 157L900 0L878.5 0C857 0 814 0 771.2 0C728.3 0 685.7 0 642.8 0C600 0 557 0 514.2 0C471.3 0 428.7 0 385.8 0C343 0 300 0 257.2 0C214.3 0 171.7 0 128.8 0C86 0 43 0 21.5 0L0 0Z" fill="#463092"></path><path d="M0 157L21.5 156.2C43 155.3 86 153.7 128.8 144.2C171.7 134.7 214.3 117.3 257.2 112.3C300 107.3 343 114.7 385.8 119.3C428.7 124 471.3 126 514.2 124.8C557 123.7 600 119.3 642.8 115.8C685.7 112.3 728.3 109.7 771.2 115.5C814 121.3 857 135.7 878.5 142.8L900 150L900 0L878.5 0C857 0 814 0 771.2 0C728.3 0 685.7 0 642.8 0C600 0 557 0 514.2 0C471.3 0 428.7 0 385.8 0C343 0 300 0 257.2 0C214.3 0 171.7 0 128.8 0C86 0 43 0 21.5 0L0 0Z" fill="#4d379b"></path><path d="M0 109L21.5 107.3C43 105.7 86 102.3 128.8 98C171.7 93.7 214.3 88.3 257.2 86.3C300 84.3 343 85.7 385.8 81.7C428.7 77.7 471.3 68.3 514.2 64.2C557 60 600 61 642.8 68.3C685.7 75.7 728.3 89.3 771.2 89.8C814 90.3 857 77.7 878.5 71.3L900 65L900 0L878.5 0C857 0 814 0 771.2 0C728.3 0 685.7 0 642.8 0C600 0 557 0 514.2 0C471.3 0 428.7 0 385.8 0C343 0 300 0 257.2 0C214.3 0 171.7 0 128.8 0C86 0 43 0 21.5 0L0 0Z" fill="#543da4"></path><path d="M0 60L21.5 54.5C43 49 86 38 128.8 39.8C171.7 41.7 214.3 56.3 257.2 61.2C300 66 343 61 385.8 54C428.7 47 471.3 38 514.2 33.3C557 28.7 600 28.3 642.8 30.8C685.7 33.3 728.3 38.7 771.2 39.5C814 40.3 857 36.7 878.5 34.8L900 33L900 0L878.5 0C857 0 814 0 771.2 0C728.3 0 685.7 0 642.8 0C600 0 557 0 514.2 0C471.3 0 428.7 0 385.8 0C343 0 300 0 257.2 0C214.3 0 171.7 0 128.8 0C86 0 43 0 21.5 0L0 0Z" fill="#5c44ad"></path></svg>